A vengeful father escapes from hell and chases after the men who killed his daughter and kidnapped his granddaughter...
 
http://www.imdb.com/title/tt1502404/

Subs: Dutch, English.


Wanneer de dochter van Milton (Nicolas Cage) vermoord wordt wil hij maar één ding; wraak. Hij krijgt drie dagen de tijd om de moordenaars te vinden, omdat deze ook nog eens zijn kleindochter ontvoerd hebben en ze van plan zijn om haar onder een volle maan te offeren. Hij wordt tijdens zijn wraakmissie vergezeld door Piper (Amber Heard), een jonge en sexy serveerster. In Pipers 'turbo-charged Black '69 Charger' beginnen ze een race tegen de klok...
 
http://www.moviemeter.nl/film/64422

Subs: Engels, Nederlands.

General
Complete name                    : Drive Angry-AC3-XviD-BRRip 2011.avi
Format                           : AVI
Format/Info                      : Audio Video Interleave
File size                        : 1.46 GiB
Duration                         : 1h 44mn
Overall bit rate                 : 2 002 Kbps
Writing application              : VirtualDubMod 1.5.4.1 (build 2178/release)
Writing library                  : VirtualDubMod build 2178/release
Source                           : Drive Angry 720p BluRay x264-TWiZTED 

Video
ID                               : 0
Format                           : MPEG-4 Visual
Format profile                   : Simple@L3
Format settings, BVOP            : No
Format settings, QPel            : No
Format settings, GMC             : No warppoints
Format settings, Matrix          : Default (H.263)
Codec ID                         : XVID
Codec ID/Hint                    : XviD
Duration                         : 1h 44mn
Bit rate                         : 1 545 Kbps
Width                            : 720 pixels
Height                           : 400 pixels
Display aspect ratio             : 16:9
Frame rate                       : 23.976 fps
Resolution                       : 8 bits
Colorimetry                      : 4:2:0
Scan type                        : Progressive
Bits/(Pixel*Frame)               : 0.224
Stream size                      : 1.13 GiB (77%)
Writing library                  : XviD 1.1.2 (UTC 2006-11-01)

Audio
ID                               : 1
Format                           : AC-3
Format/Info                      : Audio Coding 3
Codec ID                         : 2000
Duration                         : 1h 44mn
Bit rate mode                    : Constant
Bit rate                         : 448 Kbps
Channel(s)                       : 6 channels
Channel positions                : Front: L C R, Surround: L R, LFE
Sampling rate                    : 48.0 KHz
Stream size                      : 335 MiB (22%)
Alignment                        : Split accross interleaves
Interleave, duration             : 42 ms (1.00 video frame)
Interleave, preload duration     : 500 ms

Enjoy..

TBS.

Thanks to Simply ReleaseS Toppers.